<mxfile host="Electron" agent="Mozilla/5.0 (Windows NT 10.0; Win64; x64) AppleWebKit/537.36 (KHTML, like Gecko) draw.io/27.0.5 Chrome/134.0.6998.205 Electron/35.3.0 Safari/537.36" version="27.0.5">
  <diagram name="Copy of Page-1" id="O6P0NhPZkvY5MJHckq80">
    <mxGraphModel dx="1426" dy="1691" grid="0" gridSize="10" guides="1" tooltips="1" connect="1" arrows="1" fold="1" page="1" pageScale="1" pageWidth="1100" pageHeight="850" math="0" shadow="0">
      <root>
        <mxCell id="0MorRFX80h9DuErktjHg-0" />
        <mxCell id="0MorRFX80h9DuErktjHg-1" parent="0MorRFX80h9DuErktjHg-0" />
        <mxCell id="0MorRFX80h9DuErktjHg-2" value="" style="rounded=0;whiteSpace=wrap;html=1;strokeWidth=5;" parent="0MorRFX80h9DuErktjHg-1" vertex="1">
          <mxGeometry x="69" y="563" width="495" height="632" as="geometry" />
        </mxCell>
        <mxCell id="0MorRFX80h9DuErktjHg-3" value="" style="rounded=0;whiteSpace=wrap;html=1;strokeWidth=5;" parent="0MorRFX80h9DuErktjHg-1" vertex="1">
          <mxGeometry x="15" y="-30" width="495" height="581" as="geometry" />
        </mxCell>
        <mxCell id="0MorRFX80h9DuErktjHg-4" value="" style="rounded=0;whiteSpace=wrap;html=1;strokeWidth=5;" parent="0MorRFX80h9DuErktjHg-1" vertex="1">
          <mxGeometry x="579" y="121.5" width="312" height="1119" as="geometry" />
        </mxCell>
        <mxCell id="0MorRFX80h9DuErktjHg-5" style="edgeStyle=orthogonalEdgeStyle;shape=flexArrow;rounded=0;orthogonalLoop=1;jettySize=auto;html=1;exitX=1;exitY=0.5;exitDx=0;exitDy=0;fillColor=#cdeb8b;strokeColor=#36393d;" parent="0MorRFX80h9DuErktjHg-1" source="0MorRFX80h9DuErktjHg-6" edge="1">
          <mxGeometry relative="1" as="geometry">
            <mxPoint x="286" y="236" as="targetPoint" />
          </mxGeometry>
        </mxCell>
        <mxCell id="0MorRFX80h9DuErktjHg-6" value="&lt;h2&gt;Symmetric Key&lt;/h2&gt;" style="image;aspect=fixed;perimeter=ellipsePerimeter;html=1;align=center;shadow=0;dashed=0;spacingTop=3;image=img/lib/active_directory/key.svg;imageBackground=default;whiteSpace=wrap;labelBackgroundColor=none;fontColor=default;rounded=1;fillColor=#A8DADC;strokeColor=#457B9D;imageBorder=#FF0000;" parent="0MorRFX80h9DuErktjHg-1" vertex="1">
          <mxGeometry x="36" y="197" width="105.41" height="78" as="geometry" />
        </mxCell>
        <mxCell id="0MorRFX80h9DuErktjHg-7" value="" style="edgeStyle=orthogonalEdgeStyle;shape=flexArrow;rounded=0;orthogonalLoop=1;jettySize=auto;html=1;fillColor=#cdeb8b;strokeColor=#36393d;" parent="0MorRFX80h9DuErktjHg-1" source="0MorRFX80h9DuErktjHg-8" target="0MorRFX80h9DuErktjHg-20" edge="1">
          <mxGeometry relative="1" as="geometry">
            <Array as="points">
              <mxPoint x="306" y="342" />
              <mxPoint x="306" y="342" />
            </Array>
          </mxGeometry>
        </mxCell>
        <mxCell id="0MorRFX80h9DuErktjHg-8" value="&lt;h2&gt;&amp;nbsp;Symmetric Encryption&amp;nbsp;&lt;/h2&gt;" style="image;aspect=fixed;perimeter=ellipsePerimeter;html=1;align=center;shadow=0;dashed=0;spacingTop=3;image=img/lib/active_directory/secure.svg;labelBackgroundColor=none;fontColor=#1D3557;rounded=1;fillColor=#A8DADC;strokeColor=#457B9D;" parent="0MorRFX80h9DuErktjHg-1" vertex="1">
          <mxGeometry x="290" y="209" width="32" height="50" as="geometry" />
        </mxCell>
        <mxCell id="0MorRFX80h9DuErktjHg-9" style="edgeStyle=orthogonalEdgeStyle;shape=flexArrow;rounded=0;orthogonalLoop=1;jettySize=auto;html=1;fillColor=#dae8fc;strokeColor=#6c8ebf;gradientColor=#7ea6e0;" parent="0MorRFX80h9DuErktjHg-1" source="0MorRFX80h9DuErktjHg-10" target="0MorRFX80h9DuErktjHg-28" edge="1">
          <mxGeometry relative="1" as="geometry" />
        </mxCell>
        <mxCell id="0MorRFX80h9DuErktjHg-10" value="&lt;h2&gt;Symmetric Key&lt;/h2&gt;" style="image;aspect=fixed;perimeter=ellipsePerimeter;html=1;align=center;shadow=0;dashed=0;spacingTop=3;image=img/lib/active_directory/key.svg;strokeColor=#457B9D;whiteSpace=wrap;labelBackgroundColor=none;fontColor=#1D3557;rounded=1;fillColor=#A8DADC;perimeterSpacing=0;imageBorder=light-dark(#ff0000, #008f00);" parent="0MorRFX80h9DuErktjHg-1" vertex="1">
          <mxGeometry x="692" y="640" width="110.8" height="82" as="geometry" />
        </mxCell>
        <mxCell id="0MorRFX80h9DuErktjHg-11" style="edgeStyle=orthogonalEdgeStyle;shape=flexArrow;rounded=0;orthogonalLoop=1;jettySize=auto;html=1;fillColor=#cdeb8b;strokeColor=#36393d;" parent="0MorRFX80h9DuErktjHg-1" source="0MorRFX80h9DuErktjHg-12" edge="1">
          <mxGeometry relative="1" as="geometry">
            <mxPoint x="761" y="682" as="targetPoint" />
          </mxGeometry>
        </mxCell>
        <mxCell id="0MorRFX80h9DuErktjHg-12" value="&lt;h1&gt;Bob&lt;/h1&gt;" style="verticalLabelPosition=bottom;shadow=0;dashed=0;align=center;html=1;verticalAlign=top;strokeWidth=1;shape=mxgraph.mockup.containers.userMale;strokeColor2=#008cff;labelBackgroundColor=none;rounded=1;strokeColor=#FFFFFF;" parent="0MorRFX80h9DuErktjHg-1" vertex="1">
          <mxGeometry x="711" y="134.25" width="100" height="100" as="geometry" />
        </mxCell>
        <mxCell id="0MorRFX80h9DuErktjHg-13" style="edgeStyle=orthogonalEdgeStyle;shape=flexArrow;rounded=0;orthogonalLoop=1;jettySize=auto;html=1;fillColor=#cdeb8b;strokeColor=#36393d;" parent="0MorRFX80h9DuErktjHg-1" source="0MorRFX80h9DuErktjHg-14" target="0MorRFX80h9DuErktjHg-19" edge="1">
          <mxGeometry relative="1" as="geometry" />
        </mxCell>
        <mxCell id="0MorRFX80h9DuErktjHg-14" value="&lt;h1&gt;&lt;font&gt;Alice&lt;/font&gt;&lt;/h1&gt;" style="verticalLabelPosition=bottom;shadow=0;dashed=0;align=center;html=1;verticalAlign=top;strokeWidth=1;shape=mxgraph.mockup.containers.userFemale;strokeColor2=#008cff;labelBackgroundColor=none;rounded=1;strokeColor=#FFFFFF;" parent="0MorRFX80h9DuErktjHg-1" vertex="1">
          <mxGeometry x="22" y="34.25" width="100" height="100" as="geometry" />
        </mxCell>
        <mxCell id="0MorRFX80h9DuErktjHg-15" value="" style="points=[];aspect=fixed;html=1;align=center;shadow=0;dashed=0;fillColor=#e51400;strokeColor=#B20000;shape=mxgraph.alibaba_cloud.user;rounded=1;fontColor=#ffffff;labelBackgroundColor=none;" parent="0MorRFX80h9DuErktjHg-1" vertex="1">
          <mxGeometry x="268" y="596" width="110" height="110" as="geometry" />
        </mxCell>
        <mxCell id="0MorRFX80h9DuErktjHg-16" value="&lt;h1&gt;&lt;br&gt;&lt;/h1&gt;" style="text;html=1;align=center;verticalAlign=middle;resizable=0;points=[];autosize=1;strokeColor=none;fillColor=none;fontColor=#1D3557;labelBackgroundColor=none;" parent="0MorRFX80h9DuErktjHg-1" vertex="1">
          <mxGeometry x="558" y="740" width="18" height="73" as="geometry" />
        </mxCell>
        <mxCell id="0MorRFX80h9DuErktjHg-17" value="&lt;h1&gt;Tom&lt;/h1&gt;" style="text;html=1;align=center;verticalAlign=middle;resizable=0;points=[];autosize=1;labelBackgroundColor=none;" parent="0MorRFX80h9DuErktjHg-1" vertex="1">
          <mxGeometry x="288" y="685" width="67" height="73" as="geometry" />
        </mxCell>
        <mxCell id="0MorRFX80h9DuErktjHg-18" value="" style="edgeStyle=orthogonalEdgeStyle;shape=flexArrow;rounded=0;orthogonalLoop=1;jettySize=auto;html=1;fillColor=#cdeb8b;strokeColor=#36393d;" parent="0MorRFX80h9DuErktjHg-1" source="0MorRFX80h9DuErktjHg-19" target="0MorRFX80h9DuErktjHg-8" edge="1">
          <mxGeometry relative="1" as="geometry" />
        </mxCell>
        <mxCell id="0MorRFX80h9DuErktjHg-19" value="&lt;h2&gt;This is a secret message&lt;/h2&gt;" style="shape=note;whiteSpace=wrap;html=1;backgroundOutline=1;darkOpacity=0.05;fillColor=#f8cecc;strokeColor=#b85450;gradientColor=#ea6b66;" parent="0MorRFX80h9DuErktjHg-1" vertex="1">
          <mxGeometry x="257" y="22" width="98" height="123.5" as="geometry" />
        </mxCell>
        <mxCell id="0MorRFX80h9DuErktjHg-20" value="&lt;h2&gt;This is a encypted message&lt;/h2&gt;" style="shape=note;whiteSpace=wrap;html=1;backgroundOutline=1;darkOpacity=0.05;fillColor=#d5e8d4;strokeColor=#82b366;gradientColor=#97d077;" parent="0MorRFX80h9DuErktjHg-1" vertex="1">
          <mxGeometry x="270" y="367" width="98" height="121" as="geometry" />
        </mxCell>
        <mxCell id="0MorRFX80h9DuErktjHg-21" style="edgeStyle=orthogonalEdgeStyle;shape=flexArrow;rounded=0;orthogonalLoop=1;jettySize=auto;html=1;entryX=-0.01;entryY=0.42;entryDx=0;entryDy=0;entryPerimeter=0;fillColor=#cdeb8b;strokeColor=#36393d;" parent="0MorRFX80h9DuErktjHg-1" source="0MorRFX80h9DuErktjHg-20" target="0MorRFX80h9DuErktjHg-12" edge="1">
          <mxGeometry relative="1" as="geometry">
            <Array as="points">
              <mxPoint x="463" y="428" />
              <mxPoint x="463" y="176" />
            </Array>
          </mxGeometry>
        </mxCell>
        <mxCell id="0MorRFX80h9DuErktjHg-22" style="edgeStyle=orthogonalEdgeStyle;shape=flexArrow;rounded=0;orthogonalLoop=1;jettySize=auto;html=1;exitX=0.5;exitY=1;exitDx=0;exitDy=0;exitPerimeter=0;fillColor=#e51400;strokeColor=#B20000;entryX=0.464;entryY=0.009;entryDx=0;entryDy=0;entryPerimeter=0;width=12;endSize=6.98;" parent="0MorRFX80h9DuErktjHg-1" source="0MorRFX80h9DuErktjHg-20" target="0MorRFX80h9DuErktjHg-15" edge="1">
          <mxGeometry relative="1" as="geometry">
            <mxPoint x="315" y="604" as="targetPoint" />
          </mxGeometry>
        </mxCell>
        <mxCell id="0MorRFX80h9DuErktjHg-23" style="edgeStyle=orthogonalEdgeStyle;shape=flexArrow;rounded=0;orthogonalLoop=1;jettySize=auto;html=1;fillColor=#e51400;strokeColor=#B20000;" parent="0MorRFX80h9DuErktjHg-1" source="0MorRFX80h9DuErktjHg-25" target="0MorRFX80h9DuErktjHg-17" edge="1">
          <mxGeometry relative="1" as="geometry">
            <mxPoint x="322" y="774" as="targetPoint" />
          </mxGeometry>
        </mxCell>
        <mxCell id="0MorRFX80h9DuErktjHg-24" style="edgeStyle=orthogonalEdgeStyle;shape=flexArrow;rounded=0;orthogonalLoop=1;jettySize=auto;html=1;fillColor=#cdeb8b;strokeColor=#36393d;" parent="0MorRFX80h9DuErktjHg-1" source="0MorRFX80h9DuErktjHg-25" edge="1">
          <mxGeometry relative="1" as="geometry">
            <mxPoint x="816.8947368421054" y="209.73684210526312" as="targetPoint" />
          </mxGeometry>
        </mxCell>
        <mxCell id="0MorRFX80h9DuErktjHg-25" value="&lt;h2&gt;This is a secret message&lt;/h2&gt;" style="shape=note;whiteSpace=wrap;html=1;backgroundOutline=1;darkOpacity=0.05;fillColor=#f8cecc;strokeColor=#b85450;gradientColor=#ea6b66;" parent="0MorRFX80h9DuErktjHg-1" vertex="1">
          <mxGeometry x="631" y="1073" width="98" height="123.5" as="geometry" />
        </mxCell>
        <mxCell id="0MorRFX80h9DuErktjHg-26" style="edgeStyle=orthogonalEdgeStyle;shape=flexArrow;rounded=0;orthogonalLoop=1;jettySize=auto;html=1;entryX=0.5;entryY=0;entryDx=0;entryDy=0;entryPerimeter=0;fillColor=#dae8fc;strokeColor=#6c8ebf;gradientColor=#7ea6e0;" parent="0MorRFX80h9DuErktjHg-1" source="0MorRFX80h9DuErktjHg-28" target="0MorRFX80h9DuErktjHg-25" edge="1">
          <mxGeometry relative="1" as="geometry" />
        </mxCell>
        <mxCell id="0MorRFX80h9DuErktjHg-27" style="edgeStyle=orthogonalEdgeStyle;shape=flexArrow;rounded=0;orthogonalLoop=1;jettySize=auto;html=1;entryX=0.016;entryY=0.144;entryDx=0;entryDy=0;entryPerimeter=0;fillColor=#e51400;strokeColor=#B20000;" parent="0MorRFX80h9DuErktjHg-1" source="0MorRFX80h9DuErktjHg-15" target="0MorRFX80h9DuErktjHg-10" edge="1">
          <mxGeometry relative="1" as="geometry" />
        </mxCell>
        <mxCell id="0MorRFX80h9DuErktjHg-28" value="&lt;h2&gt;Decryption Algorithm&lt;/h2&gt;" style="image;aspect=fixed;perimeter=ellipsePerimeter;html=1;align=center;shadow=0;dashed=0;spacingTop=3;image=img/lib/active_directory/not_secure.svg;labelBackgroundColor=none;fontColor=#1D3557;rounded=1;fillColor=#A8DADC;strokeColor=#457B9D;" parent="0MorRFX80h9DuErktjHg-1" vertex="1">
          <mxGeometry x="658" y="835" width="44" height="50" as="geometry" />
        </mxCell>
        <mxCell id="St1c-CjASWxSitSOXMyg-19" style="edgeStyle=orthogonalEdgeStyle;shape=flexArrow;rounded=0;orthogonalLoop=1;jettySize=auto;html=1;exitX=0.75;exitY=1;exitDx=0;exitDy=0;entryX=-0.009;entryY=0.829;entryDx=0;entryDy=0;entryPerimeter=0;fillColor=#cdeb8b;strokeColor=#36393d;" parent="0MorRFX80h9DuErktjHg-1" source="0MorRFX80h9DuErktjHg-6" target="0MorRFX80h9DuErktjHg-10" edge="1">
          <mxGeometry relative="1" as="geometry" />
        </mxCell>
      </root>
    </mxGraphModel>
  </diagram>
</mxfile>
